<?xml version="1.0" encoding="UTF-8"?>
<svg xmlns="http://www.w3.org/2000/svg" xmlns:xlink="http://www.w3.org/1999/xlink" width="300px" height="39px" viewBox="0 0 136 18" version="1.1">
<defs>
<linearGradient id="linear0" gradientUnits="userSpaceOnUse" x1="0" y1="17.76" x2="273.42" y2="17.76" gradientTransform="matrix(0.497403,0,0,0.499232,0,0.133641)">
<stop offset="0" style="stop-color:rgb(56.470588%,80.784314%,63.137255%);stop-opacity:1;"/>
<stop offset="0.56" style="stop-color:rgb(23.529412%,74.509804%,78.823529%);stop-opacity:1;"/>
<stop offset="1" style="stop-color:rgb(0%,70.196078%,89.803922%);stop-opacity:1;"/>
</linearGradient>
</defs>
<g id="surface1">
<path style=" stroke:none;fill-rule:nonzero;fill:url(#linear0);" d="M 95.425781 17.792969 L 127.210938 17.792969 C 132.066406 17.792969 136 13.84375 136 8.96875 C 136.003906 6.628906 135.078125 4.378906 133.429688 2.722656 C 131.78125 1.066406 129.542969 0.132812 127.210938 0.132812 L 95.425781 0.132812 C 93.09375 0.132812 90.855469 1.066406 89.207031 2.722656 C 87.558594 4.378906 86.632812 6.628906 86.636719 8.96875 C 86.636719 13.84375 90.574219 17.792969 95.425781 17.792969 Z M 5.023438 17.816406 L 8.902344 17.816406 L 8.902344 3.589844 L 13.925781 3.589844 L 13.925781 0.132812 L 0 0.132812 L 0 3.578125 L 5.023438 3.578125 Z M 19 17.816406 L 22.878906 17.816406 L 22.878906 4.253906 L 22.929688 4.253906 L 27.382812 17.804688 L 30.367188 17.804688 L 34.96875 4.253906 L 35.015625 4.253906 L 35.015625 17.804688 L 38.898438 17.804688 L 38.898438 0.132812 L 33.050781 0.132812 L 28.972656 11.664062 L 28.925781 11.664062 L 24.871094 0.132812 L 19 0.132812 Z M 44.339844 0.195312 L 50.15625 0.195312 C 51.511719 0.195312 52.863281 0.363281 54.175781 0.691406 C 55.375 0.976562 56.503906 1.5 57.496094 2.230469 C 58.453125 2.953125 59.226562 3.898438 59.75 4.984375 C 60.335938 6.277344 60.621094 7.6875 60.578125 9.105469 C 60.605469 10.410156 60.328125 11.707031 59.773438 12.890625 C 59.253906 13.953125 58.511719 14.890625 57.59375 15.636719 C 56.65625 16.390625 55.585938 16.960938 54.4375 17.316406 C 53.222656 17.703125 51.953125 17.898438 50.679688 17.890625 L 44.339844 17.890625 Z M 48.21875 14.273438 L 50.207031 14.273438 C 51.042969 14.277344 51.878906 14.183594 52.695312 13.996094 C 53.421875 13.847656 54.109375 13.546875 54.714844 13.113281 C 55.289062 12.675781 55.75 12.101562 56.046875 11.441406 C 56.398438 10.644531 56.566406 9.777344 56.542969 8.90625 C 56.558594 8.125 56.390625 7.351562 56.046875 6.648438 C 55.738281 6.027344 55.289062 5.484375 54.738281 5.0625 C 54.167969 4.632812 53.519531 4.316406 52.835938 4.128906 C 52.078125 3.914062 51.292969 3.808594 50.507812 3.8125 L 48.21875 3.8125 Z M 66.199219 0.195312 L 72.765625 0.195312 C 73.535156 0.195312 74.304688 0.25 75.066406 0.359375 C 75.792969 0.453125 76.492188 0.671875 77.140625 1.007812 C 77.75 1.324219 78.261719 1.789062 78.632812 2.363281 C 79.046875 3.066406 79.246094 3.875 79.207031 4.6875 C 79.242188 5.59375 78.945312 6.480469 78.375 7.183594 C 77.792969 7.859375 77.027344 8.347656 76.171875 8.589844 L 76.171875 8.621094 C 76.722656 8.699219 77.257812 8.867188 77.753906 9.121094 C 78.210938 9.351562 78.625 9.664062 78.972656 10.042969 C 79.316406 10.421875 79.582031 10.867188 79.753906 11.351562 C 79.9375 11.863281 80.03125 12.40625 80.027344 12.949219 C 80.058594 13.769531 79.851562 14.582031 79.429688 15.285156 C 79.039062 15.898438 78.511719 16.410156 77.886719 16.78125 C 77.234375 17.179688 76.515625 17.457031 75.765625 17.605469 C 74.992188 17.773438 74.203125 17.855469 73.410156 17.855469 L 66.199219 17.855469 Z M 70.078125 7.257812 L 72.890625 7.257812 C 73.1875 7.257812 73.484375 7.226562 73.773438 7.15625 C 74.050781 7.097656 74.316406 6.988281 74.554688 6.832031 C 74.789062 6.683594 74.980469 6.476562 75.117188 6.234375 C 75.261719 5.957031 75.335938 5.648438 75.328125 5.335938 C 75.34375 5.019531 75.265625 4.703125 75.109375 4.425781 C 74.953125 4.191406 74.742188 3.996094 74.496094 3.863281 C 74.21875 3.722656 73.921875 3.628906 73.617188 3.578125 C 73.3125 3.519531 73.003906 3.488281 72.695312 3.488281 L 70.058594 3.488281 Z M 70.078125 14.570312 L 73.5625 14.570312 C 73.867188 14.570312 74.171875 14.539062 74.472656 14.472656 C 74.769531 14.410156 75.050781 14.292969 75.300781 14.121094 C 75.554688 13.957031 75.761719 13.734375 75.914062 13.472656 C 76.078125 13.175781 76.15625 12.839844 76.148438 12.5 C 76.160156 12.140625 76.050781 11.789062 75.839844 11.5 C 75.628906 11.242188 75.359375 11.039062 75.054688 10.910156 C 74.734375 10.777344 74.398438 10.6875 74.058594 10.636719 C 73.71875 10.589844 73.378906 10.5625 73.039062 10.5625 L 70.105469 10.5625 Z M 70.078125 14.570312 "/>
</g>
</svg>
